<svg id="svg" version="1.1" xmlns="http://www.w3.org/2000/svg" xmlns:xlink="http://www.w3.org/1999/xlink" width="400" height="400" viewBox="0, 0, 400,400"><g id="svgg"><path id="path0" d="M251.013 47.667 C 251.105 48.148,250.997 48.763,250.771 49.035 C 250.490 49.373,250.493 49.611,250.781 49.788 C 251.011 49.931,251.200 49.788,251.200 49.472 C 251.200 48.084,252.976 47.984,275.700 48.093 C 287.965 48.152,298.000 48.065,298.000 47.900 C 298.000 47.735,287.695 47.557,275.100 47.503 L 252.200 47.407 274.600 47.293 C 296.545 47.181,299.061 47.254,298.610 47.984 C 298.487 48.182,298.560 48.452,298.773 48.583 C 298.987 48.716,299.089 48.462,299.002 48.011 C 298.841 47.175,299.376 46.883,299.737 47.610 C 299.849 47.835,299.894 47.791,299.837 47.510 C 299.755 47.105,294.714 46.979,275.289 46.897 L 250.845 46.794 251.013 47.667 M248.001 48.198 C 247.486 48.748,247.184 49.318,247.332 49.465 C 247.479 49.613,247.600 49.523,247.600 49.267 C 247.600 49.010,247.786 48.800,248.014 48.800 C 248.299 48.800,248.299 49.042,248.013 49.576 C 247.737 50.092,247.732 50.434,247.999 50.599 C 248.542 50.935,249.200 50.484,249.200 49.776 C 249.200 49.459,249.459 49.200,249.776 49.200 C 250.484 49.200,250.935 48.542,250.599 47.999 C 250.434 47.732,250.092 47.737,249.576 48.013 C 249.109 48.263,248.800 48.277,248.800 48.047 C 248.800 47.838,249.025 47.576,249.300 47.465 C 249.575 47.354,249.606 47.249,249.370 47.232 C 249.133 47.214,248.517 47.649,248.001 48.198 M300.602 47.603 C 300.739 47.825,300.570 48.288,300.226 48.632 C 299.881 48.976,299.600 49.525,299.600 49.852 C 299.600 50.200,299.408 50.329,299.138 50.162 C 298.871 49.997,298.784 50.051,298.932 50.290 C 299.314 50.908,300.798 51.202,300.813 50.663 C 300.820 50.408,301.051 50.496,301.326 50.858 C 301.739 51.400,301.948 51.428,302.513 51.014 C 303.275 50.457,303.435 49.600,302.776 49.600 C 302.543 49.600,302.467 49.416,302.606 49.190 C 302.745 48.965,302.628 48.830,302.344 48.890 C 302.061 48.951,301.645 48.595,301.420 48.100 C 301.195 47.605,300.862 47.200,300.682 47.200 C 300.501 47.200,300.465 47.381,300.602 47.603 M301.996 49.596 C 302.791 50.391,302.791 50.392,301.595 50.261 C 300.107 50.098,299.640 49.673,300.412 49.184 C 301.174 48.702,301.077 48.677,301.996 49.596 M249.002 50.797 C 248.863 51.022,248.310 51.127,247.774 51.030 L 246.800 50.853 246.889 61.326 L 246.979 71.800 247.207 62.000 L 247.435 52.200 247.418 62.262 C 247.408 67.796,247.535 72.241,247.700 72.139 C 247.865 72.036,248.000 67.742,248.000 62.595 C 248.000 53.042,248.226 51.373,249.556 51.109 C 250.008 51.019,250.059 50.892,249.728 50.684 C 249.468 50.521,249.141 50.571,249.002 50.797 M302.400 51.600 C 302.290 51.930,302.290 56.655,302.400 62.100 C 302.531 68.566,302.461 72.003,302.200 72.007 C 301.980 72.010,302.070 72.189,302.400 72.406 C 302.790 72.662,302.855 72.905,302.585 73.100 C 302.357 73.265,302.120 74.063,302.057 74.872 C 301.864 77.375,302.484 77.541,312.329 77.634 C 323.362 77.738,322.861 77.183,322.782 89.222 C 322.729 97.198,323.111 98.410,325.486 97.814 C 325.989 97.688,326.400 97.763,326.400 97.980 C 326.400 98.197,326.676 98.269,327.012 98.140 C 327.518 97.946,327.586 98.173,327.400 99.452 C 327.229 100.630,327.365 101.239,327.968 102.000 L 328.761 103.000 337.427 102.890 C 348.276 102.752,347.200 101.764,347.200 111.862 C 347.200 119.309,347.609 122.800,348.482 122.800 C 348.550 122.800,349.205 122.972,349.939 123.182 C 351.111 123.518,351.243 123.482,351.035 122.882 C 350.838 122.314,350.895 122.325,351.379 122.949 C 351.728 123.400,351.872 124.138,351.740 124.801 C 351.616 125.418,351.716 126.024,351.966 126.179 C 352.212 126.331,352.327 126.594,352.223 126.763 C 351.600 127.771,355.059 128.758,357.620 128.304 C 360.125 127.860,369.065 127.826,370.523 128.256 C 371.883 128.656,372.230 131.074,372.577 142.575 C 372.716 147.157,373.396 148.284,375.716 147.775 C 376.526 147.597,376.815 147.653,376.629 147.953 C 376.454 148.236,376.600 148.298,377.043 148.128 C 377.630 147.903,377.690 148.049,377.468 149.161 C 377.301 149.995,377.424 150.874,377.815 151.628 L 378.421 152.800 388.410 152.850 C 393.905 152.878,398.715 152.922,399.100 152.948 C 399.867 153.000,400.105 149.449,399.445 147.800 C 399.181 147.140,399.207 147.105,399.593 147.600 C 400.009 148.133,400.043 148.133,399.897 147.600 C 399.758 147.089,398.148 146.984,389.067 146.893 L 378.400 146.787 378.398 136.493 C 378.396 130.613,378.217 125.559,377.980 124.705 C 377.584 123.279,376.390 122.143,375.853 122.681 C 375.714 122.820,375.600 122.768,375.600 122.567 C 375.600 122.350,371.122 122.252,364.673 122.328 C 355.306 122.438,353.673 122.370,353.243 121.852 C 352.861 121.392,352.772 118.669,352.871 110.423 C 352.942 104.470,352.854 99.600,352.676 99.600 C 352.498 99.600,352.460 99.427,352.591 99.215 C 352.858 98.782,351.433 97.200,350.776 97.200 C 350.543 97.200,350.464 97.380,350.600 97.600 C 350.736 97.820,350.676 98.000,350.466 98.000 C 350.257 98.000,349.982 97.730,349.855 97.400 C 349.659 96.888,348.077 96.800,339.013 96.800 L 328.400 96.800 328.400 86.331 C 328.400 76.933,328.328 75.781,327.700 75.063 C 327.315 74.623,327.225 74.394,327.500 74.555 C 328.295 75.020,328.079 74.079,327.185 73.185 C 326.737 72.737,326.197 72.478,325.985 72.609 C 325.773 72.740,325.600 72.657,325.600 72.424 C 325.600 72.191,325.229 72.000,324.776 72.000 C 324.323 72.000,324.036 72.135,324.139 72.300 C 324.492 72.871,303.722 72.429,303.245 71.855 C 302.968 71.521,302.776 67.695,302.707 61.167 C 302.648 55.575,302.510 51.270,302.400 51.600 M175.039 72.463 C 175.128 72.607,174.879 72.641,174.485 72.538 C 173.606 72.308,172.561 73.405,172.171 74.966 C 171.926 75.947,171.984 76.092,172.540 75.878 C 172.903 75.739,173.200 75.810,173.200 76.036 C 173.200 76.262,173.380 76.336,173.600 76.200 C 173.820 76.064,174.000 76.240,174.000 76.590 C 174.000 77.101,173.843 77.144,173.213 76.807 C 172.442 76.394,172.424 76.584,172.313 86.593 C 172.251 92.207,172.335 96.800,172.500 96.800 C 172.665 96.800,172.802 92.885,172.805 88.100 C 172.812 78.477,172.904 77.734,174.143 77.386 C 176.322 76.776,177.137 76.301,176.930 75.763 C 176.812 75.453,176.917 75.200,177.165 75.200 C 177.448 75.200,177.520 74.821,177.359 74.180 C 177.121 73.233,177.184 73.176,178.252 73.386 C 179.178 73.569,179.245 73.539,178.600 73.234 C 178.090 72.993,190.317 72.846,212.300 72.828 C 231.275 72.813,246.800 72.665,246.800 72.500 C 246.800 72.335,230.617 72.200,210.838 72.200 C 191.059 72.200,174.949 72.318,175.039 72.463 M101.030 97.774 C 101.127 98.310,101.022 98.863,100.797 99.002 C 100.571 99.141,100.509 99.453,100.659 99.696 C 100.832 99.976,100.697 100.046,100.286 99.888 C 99.811 99.706,99.706 99.811,99.888 100.286 C 100.046 100.697,99.976 100.832,99.696 100.659 C 99.453 100.509,99.141 100.571,99.002 100.797 C 98.863 101.022,98.310 101.127,97.774 101.030 L 96.800 100.853 96.889 111.326 L 96.979 121.800 97.207 112.000 L 97.435 102.200 97.418 112.262 C 97.408 117.796,97.535 122.241,97.700 122.139 C 97.865 122.036,98.000 117.742,98.000 112.595 C 98.000 102.823,98.172 101.666,99.726 100.984 C 100.207 100.773,100.773 100.207,100.984 99.726 C 101.740 98.003,101.800 98.000,137.595 98.000 C 156.492 98.000,172.036 97.865,172.138 97.700 C 172.240 97.535,156.546 97.402,137.262 97.406 L 102.200 97.411 137.000 97.202 L 171.800 96.993 136.326 96.897 L 100.853 96.800 101.030 97.774 M98.001 98.198 C 97.486 98.748,97.184 99.318,97.332 99.465 C 97.479 99.613,97.600 99.523,97.600 99.267 C 97.600 99.010,97.786 98.800,98.014 98.800 C 98.299 98.800,98.299 99.042,98.013 99.576 C 97.737 100.092,97.732 100.434,97.999 100.599 C 98.542 100.935,99.200 100.484,99.200 99.776 C 99.200 99.459,99.459 99.200,99.776 99.200 C 100.484 99.200,100.935 98.542,100.599 97.999 C 100.434 97.732,100.092 97.737,99.576 98.013 C 99.109 98.263,98.800 98.277,98.800 98.047 C 98.800 97.838,99.025 97.576,99.300 97.465 C 99.575 97.354,99.606 97.249,99.370 97.232 C 99.133 97.214,98.517 97.649,98.001 98.198 M25.039 122.463 C 25.128 122.607,24.879 122.641,24.485 122.538 C 23.606 122.308,22.561 123.405,22.171 124.966 C 21.926 125.947,21.984 126.092,22.540 125.878 C 22.903 125.739,23.200 125.810,23.200 126.036 C 23.200 126.262,23.380 126.336,23.600 126.200 C 23.820 126.064,24.000 126.255,24.000 126.625 C 24.000 127.143,24.124 127.195,24.537 126.852 C 24.832 126.607,25.192 126.525,25.337 126.670 C 25.482 126.815,25.600 126.713,25.600 126.443 C 25.600 126.173,25.768 126.056,25.972 126.183 C 26.434 126.468,26.702 126.056,26.951 124.679 C 27.058 124.093,27.258 123.430,27.396 123.207 C 27.563 122.936,39.230 122.800,62.224 122.800 C 81.241 122.800,96.800 122.665,96.800 122.500 C 96.800 122.335,80.617 122.200,60.838 122.200 C 41.059 122.200,24.949 122.318,25.039 122.463 M22.313 136.618 C 22.251 142.218,22.326 146.800,22.479 146.800 C 22.633 146.800,22.815 142.615,22.884 137.500 C 22.952 132.385,23.152 127.908,23.327 127.552 C 23.540 127.119,23.443 126.825,23.036 126.669 C 22.501 126.464,22.412 127.687,22.313 136.618 M0.178 147.235 C 0.031 147.474,0.121 147.879,0.379 148.135 C 0.736 148.490,0.780 148.423,0.563 147.853 C 0.314 147.199,0.382 147.162,1.113 147.553 C 2.062 148.061,21.829 148.199,22.139 147.700 C 22.241 147.535,17.616 147.408,11.862 147.417 L 1.400 147.434 11.600 147.207 L 21.800 146.979 11.124 146.890 C 3.776 146.828,0.363 146.936,0.178 147.235 M378.924 173.476 C 378.443 173.571,377.402 174.365,376.612 175.239 L 375.176 176.829 375.405 201.314 C 375.836 247.460,375.834 248.540,375.314 249.447 C 374.608 250.679,373.404 250.800,361.850 250.800 L 351.400 250.799 348.952 249.641 L 346.505 248.484 336.426 248.582 C 323.585 248.708,325.007 247.152,324.972 261.114 C 324.942 272.870,324.847 273.719,323.473 274.492 C 321.996 275.323,303.161 275.441,300.030 274.639 C 298.157 274.159,295.525 273.998,289.468 273.990 C 285.030 273.985,280.699 273.818,279.841 273.619 C 278.605 273.333,277.860 273.425,276.241 274.066 C 274.426 274.784,272.969 274.898,263.068 275.098 C 248.630 275.390,250.253 273.819,250.000 287.745 C 249.850 296.022,249.671 298.891,249.281 299.281 C 248.639 299.923,235.950 300.304,201.561 300.712 C 182.833 300.935,177.182 301.116,176.707 301.511 C 176.191 301.939,176.063 303.738,175.908 312.711 C 175.717 323.776,175.620 324.547,174.342 325.231 C 173.130 325.880,154.028 326.099,150.852 325.500 C 147.558 324.879,128.256 325.021,126.926 325.676 C 125.499 326.380,125.275 327.754,125.013 337.400 C 124.876 342.460,124.579 347.296,124.354 348.147 C 124.128 348.998,123.929 350.199,123.912 350.816 C 123.890 351.602,123.628 352.006,123.040 352.164 C 121.587 352.554,78.641 352.413,78.013 352.017 C 77.642 351.782,77.239 351.802,76.913 352.072 C 76.233 352.637,76.202 351.558,76.880 350.880 C 77.253 350.507,77.253 350.400,76.880 350.400 C 76.616 350.400,76.421 350.265,76.447 350.100 C 76.585 349.230,76.287 348.839,75.200 348.460 C 74.471 348.206,74.000 348.191,74.000 348.421 C 74.000 348.629,73.708 348.800,73.351 348.800 C 72.868 348.800,72.811 348.669,73.128 348.287 C 73.398 347.961,73.418 347.558,73.183 347.187 C 72.979 346.864,72.809 342.505,72.806 337.500 C 72.803 332.495,72.665 328.400,72.500 328.400 C 71.810 328.399,72.388 348.520,73.103 349.384 C 73.475 349.833,73.523 349.975,73.209 349.700 C 71.830 348.489,71.700 350.554,73.061 352.064 C 74.284 353.421,76.614 353.464,75.564 352.110 C 75.046 351.441,75.060 351.438,75.807 352.057 C 76.529 352.656,81.031 352.741,126.039 353.006 L 175.479 353.297 176.839 352.082 L 178.200 350.867 178.323 339.642 L 178.446 328.416 214.656 328.308 L 250.866 328.200 252.033 326.894 L 253.200 325.587 253.200 314.394 L 253.200 303.200 289.394 303.200 L 325.587 303.200 326.894 302.033 L 328.200 300.867 328.323 289.633 L 328.446 278.400 351.123 278.398 C 365.645 278.396,374.341 278.245,375.304 277.978 C 378.107 277.199,378.184 276.849,378.323 264.319 L 378.446 253.200 389.225 253.200 L 400.004 253.200 399.902 213.300 L 399.800 173.400 389.800 173.351 C 384.300 173.324,379.406 173.380,378.924 173.476 M1.158 277.522 C 1.615 277.847,1.578 277.954,0.958 278.113 C 0.541 278.220,5.015 278.328,10.900 278.354 C 17.798 278.384,21.600 278.258,21.600 278.000 C 21.600 277.744,18.078 277.600,11.833 277.600 C 6.461 277.600,1.736 277.493,1.333 277.362 C 0.768 277.179,0.728 277.216,1.158 277.522 M22.314 288.483 C 22.413 297.324,22.512 298.667,23.114 299.377 C 23.766 300.146,23.765 300.159,23.090 299.636 C 21.736 298.586,21.779 300.916,23.136 302.139 C 24.646 303.500,26.711 303.370,25.500 301.991 C 25.225 301.677,25.367 301.725,25.816 302.097 C 26.680 302.812,46.801 303.390,46.800 302.700 C 46.800 302.456,41.366 302.328,27.278 302.241 C 26.455 302.235,26.377 302.084,26.547 300.817 C 26.728 299.471,26.706 299.440,26.115 300.200 C 25.575 300.894,25.526 300.904,25.745 300.270 C 26.097 299.255,25.057 298.320,23.899 298.611 C 23.123 298.806,22.964 298.689,22.959 297.923 C 22.874 283.933,22.744 278.400,22.500 278.400 C 22.335 278.400,22.251 282.937,22.314 288.483 M47.514 312.714 C 47.582 318.597,47.791 322.748,48.033 323.040 C 48.308 323.372,48.304 323.612,48.019 323.788 C 47.424 324.156,47.470 324.741,47.208 313.600 L 46.967 303.400 46.884 313.924 C 46.833 320.286,46.946 324.357,47.170 324.219 C 47.373 324.093,47.622 324.307,47.723 324.695 C 47.897 325.361,47.910 325.361,47.954 324.700 C 47.979 324.315,48.169 324.000,48.375 324.000 C 48.914 324.000,48.734 325.372,48.120 325.946 C 47.716 326.323,47.600 326.324,47.600 325.949 C 47.600 325.684,47.479 325.587,47.332 325.735 C 46.857 326.210,48.896 328.023,49.640 327.787 C 50.021 327.666,50.448 327.755,50.590 327.984 C 50.937 328.545,71.600 328.561,71.600 328.000 C 71.600 327.744,68.144 327.600,62.033 327.600 C 54.754 327.600,52.418 327.480,52.265 327.100 C 52.144 326.801,52.050 326.882,52.032 327.300 C 52.002 327.964,50.834 328.334,50.769 327.700 C 50.649 326.517,50.384 325.795,50.026 325.675 C 48.472 325.157,48.000 322.103,48.000 312.573 C 48.000 307.444,47.865 303.164,47.700 303.061 C 47.535 302.959,47.451 307.303,47.514 312.714 " stroke="none" fill="#713521" fill-rule="evenodd"></path><path id="path1" d="M263.700 47.500 C 270.025 47.562,280.375 47.562,286.700 47.500 C 293.025 47.438,287.850 47.387,275.200 47.387 C 262.550 47.387,257.375 47.438,263.700 47.500 M302.600 61.362 C 302.600 67.171,302.735 71.840,302.900 71.738 C 303.292 71.496,303.292 50.800,302.900 50.800 C 302.735 50.800,302.600 55.553,302.600 61.362 M247.114 62.200 C 247.051 67.590,247.135 72.000,247.300 72.000 C 247.465 72.000,247.600 67.590,247.600 62.200 C 247.600 56.810,247.516 52.400,247.414 52.400 C 247.311 52.400,247.176 56.810,247.114 62.200 M193.500 72.300 C 203.235 72.360,219.165 72.360,228.900 72.300 C 238.635 72.240,230.670 72.191,211.200 72.191 C 191.730 72.191,183.765 72.240,193.500 72.300 M307.000 72.280 C 315.948 72.564,324.309 72.574,324.139 72.300 C 324.037 72.135,319.328 72.037,313.676 72.083 C 308.024 72.129,305.020 72.217,307.000 72.280 M251.712 75.608 C 250.351 76.156,250.200 77.422,250.200 88.258 C 250.200 101.298,248.724 99.877,262.459 100.058 C 276.265 100.239,274.804 98.759,274.787 112.544 C 274.771 126.230,275.544 125.314,264.329 124.940 C 254.789 124.622,251.403 124.917,250.609 126.133 C 250.170 126.806,250.010 129.279,249.896 137.200 C 249.696 150.984,250.906 149.733,237.600 149.903 C 223.813 150.080,224.857 148.995,224.807 163.199 C 224.780 170.992,224.672 172.700,224.174 173.199 C 222.939 174.435,177.316 175.088,176.114 173.886 C 174.956 172.729,174.807 152.975,175.945 151.567 L 176.728 150.600 187.553 150.400 C 201.606 150.140,200.115 151.631,200.163 137.791 L 200.200 127.131 201.322 126.165 L 202.445 125.200 212.993 125.200 L 223.542 125.200 224.371 124.146 C 225.604 122.579,225.660 102.657,224.436 101.144 C 223.598 100.108,221.291 99.990,189.600 99.367 C 172.610 99.033,174.246 97.681,174.065 112.200 C 173.982 118.859,173.772 123.192,173.516 123.500 C 173.194 123.890,167.924 124.000,149.648 124.000 C 133.312 124.000,125.771 124.137,124.797 124.452 C 123.976 124.717,119.197 124.973,113.200 125.073 C 102.995 125.243,101.128 125.488,100.550 126.737 C 100.381 127.101,100.143 132.027,100.022 137.681 C 99.857 145.332,99.667 148.095,99.281 148.481 C 98.756 149.005,91.504 149.278,63.400 149.830 C 54.145 150.012,52.304 149.949,50.529 149.393 C 48.777 148.844,46.711 148.764,37.090 148.872 C 24.574 149.013,24.682 148.991,24.200 151.514 C 23.811 153.547,23.961 269.220,24.356 272.122 C 24.874 275.930,24.334 275.771,37.514 276.000 C 43.831 276.110,49.225 276.346,49.500 276.524 C 49.877 276.768,50.001 279.224,50.002 286.524 C 50.006 301.068,48.916 299.903,62.651 300.049 C 76.322 300.194,75.194 301.355,75.198 287.119 C 75.201 273.886,76.138 274.795,62.600 274.900 C 52.242 274.981,51.726 274.897,51.396 273.077 C 50.674 269.090,51.399 226.336,52.200 225.735 C 52.873 225.229,54.566 225.156,62.893 225.271 C 75.875 225.451,74.540 224.046,74.800 237.799 C 75.061 251.622,73.693 250.235,86.921 250.089 C 95.229 249.997,97.156 250.080,97.808 250.556 C 98.585 251.124,98.604 251.839,98.800 287.602 L 99.000 324.070 100.142 325.052 L 101.285 326.035 112.634 325.917 L 123.983 325.800 125.092 324.691 L 126.200 323.583 126.400 300.291 C 126.510 287.481,126.747 276.703,126.928 276.339 C 127.442 275.302,128.387 275.211,138.700 275.205 C 147.575 275.200,148.463 275.137,149.135 274.465 C 149.901 273.699,150.400 266.505,150.400 256.206 C 150.400 250.140,149.765 250.458,162.423 250.191 C 168.020 250.073,173.000 249.889,173.488 249.783 C 175.188 249.415,175.344 248.398,175.266 238.149 C 175.198 229.165,175.246 228.432,175.961 227.549 L 176.729 226.600 200.150 226.600 C 222.103 226.600,223.616 226.645,224.286 227.314 C 225.376 228.405,225.377 247.994,224.286 249.086 C 223.642 249.731,222.506 249.811,212.601 249.918 L 201.630 250.036 200.815 251.072 C 200.045 252.051,200.000 252.653,200.000 261.994 C 200.000 272.053,199.753 274.102,198.484 274.589 C 198.121 274.728,193.118 274.829,187.366 274.813 C 177.606 274.786,176.844 274.836,175.954 275.556 L 175.000 276.328 174.876 286.864 C 174.772 295.637,174.850 297.533,175.338 298.193 C 175.957 299.029,215.650 299.736,221.432 299.013 C 225.247 298.537,225.200 298.674,225.202 288.100 C 225.206 274.324,224.339 275.206,237.874 275.202 C 250.918 275.199,250.035 276.124,250.312 262.185 C 250.452 255.129,250.663 251.793,250.999 251.334 C 251.715 250.355,254.749 250.062,264.500 250.029 C 276.124 249.990,275.194 251.152,275.320 236.511 C 275.426 224.230,274.069 225.460,287.797 225.200 C 301.242 224.946,299.746 226.443,300.000 212.995 L 300.200 202.416 301.309 201.308 L 302.417 200.200 313.045 200.000 C 326.556 199.746,325.187 201.020,325.240 188.656 C 325.262 183.565,325.404 178.950,325.557 178.400 C 326.066 176.562,327.102 176.476,350.984 176.274 L 373.295 176.086 374.348 175.035 L 375.400 173.983 375.526 163.492 C 375.710 148.160,377.089 149.613,362.354 149.605 C 352.194 149.600,351.660 149.562,350.654 148.771 L 349.600 147.942 349.598 138.671 C 349.594 124.594,350.547 125.600,337.218 125.600 C 324.499 125.600,325.856 127.101,325.591 112.736 C 325.416 103.233,325.228 100.662,324.657 99.926 C 324.626 99.886,319.254 99.751,312.719 99.626 C 303.764 99.456,300.710 99.272,300.319 98.881 C 299.930 98.492,299.750 95.659,299.600 87.545 C 299.401 76.770,299.396 76.725,298.456 75.964 C 297.420 75.126,253.736 74.794,251.712 75.608 M172.083 86.300 C 172.166 96.574,172.302 95.389,172.497 82.699 C 172.554 79.014,172.465 75.999,172.300 75.999 C 172.135 76.000,172.037 80.635,172.083 86.300 M137.000 97.200 L 102.200 97.407 137.100 97.503 C 160.164 97.567,172.000 97.464,172.000 97.200 C 172.000 96.980,171.955 96.844,171.900 96.897 C 171.845 96.950,156.140 97.086,137.000 97.200 M199.111 101.423 C 199.992 102.040,200.000 102.140,200.000 112.794 L 200.000 123.542 198.946 124.371 C 197.748 125.314,178.435 125.675,176.774 124.786 C 175.633 124.175,175.563 101.894,176.700 101.232 C 177.949 100.505,198.044 100.676,199.111 101.423 M323.694 101.761 C 323.856 102.003,323.995 105.620,324.005 109.800 C 324.024 118.510,324.303 123.985,324.829 126.000 C 325.031 126.770,325.197 132.114,325.198 137.876 C 325.199 145.816,325.321 148.431,325.700 148.676 C 325.975 148.854,331.240 149.090,337.400 149.200 C 347.653 149.383,348.718 149.468,350.000 150.200 C 351.300 150.943,352.165 151.002,362.075 151.030 C 370.199 151.053,372.898 151.184,373.375 151.579 C 374.210 152.272,374.328 173.340,373.500 173.876 C 373.225 174.054,367.960 174.331,361.800 174.492 C 355.640 174.653,344.570 174.968,337.200 175.193 C 329.830 175.418,318.850 175.700,312.800 175.821 C 303.238 176.011,301.735 176.126,301.300 176.696 C 300.929 177.183,300.800 180.081,300.800 187.907 L 300.800 198.462 299.631 199.631 L 298.462 200.800 275.120 200.800 C 254.641 200.800,251.669 200.876,250.889 201.423 C 250.008 202.040,250.000 202.140,250.000 212.794 C 250.000 222.032,249.912 223.631,249.371 224.171 C 249.026 224.517,248.711 224.839,248.671 224.886 C 248.632 224.933,231.680 225.109,211.000 225.276 C 158.780 225.697,151.932 225.860,151.300 226.693 C 150.929 227.182,150.800 230.082,150.800 237.907 L 150.800 248.462 149.631 249.631 L 148.462 250.800 137.680 250.800 C 129.539 250.800,126.798 250.922,126.488 251.300 C 126.245 251.597,125.974 256.418,125.820 263.200 C 125.678 269.470,125.386 280.450,125.173 287.600 C 124.959 294.750,124.689 305.635,124.574 311.789 C 124.395 321.312,124.268 323.083,123.720 323.689 C 122.992 324.493,102.829 324.785,101.600 324.009 C 100.893 323.563,100.637 315.743,99.998 275.000 C 99.497 243.036,99.074 226.539,98.748 226.213 C 98.609 226.075,93.503 225.920,87.403 225.869 L 76.310 225.776 75.355 224.666 L 74.400 223.555 74.400 212.806 C 74.400 203.568,74.312 201.969,73.771 201.429 C 72.800 200.457,51.559 200.486,50.749 201.460 C 50.065 202.284,49.717 214.463,49.392 249.000 C 49.185 271.002,49.098 273.449,48.505 273.900 C 47.801 274.435,30.128 274.646,27.645 274.149 C 25.827 273.785,25.914 276.068,25.816 226.085 C 25.766 200.848,25.585 173.694,25.414 165.742 L 25.101 151.283 26.108 150.623 C 26.995 150.042,28.444 149.978,38.194 150.082 L 49.272 150.200 50.036 151.144 C 50.745 152.020,50.800 152.850,50.800 162.616 C 50.800 171.653,50.889 173.232,51.429 173.771 C 52.320 174.663,73.012 174.718,74.224 173.832 C 74.952 173.299,75.008 172.616,75.128 162.732 C 75.231 154.149,75.364 152.089,75.841 151.600 C 76.323 151.106,78.607 150.946,88.713 150.695 C 123.277 149.836,123.953 149.809,124.481 149.281 C 124.875 148.887,125.030 146.118,125.123 137.810 C 125.230 128.361,125.334 126.787,125.886 126.330 C 126.580 125.755,173.068 125.534,174.500 126.099 C 175.373 126.443,175.582 146.724,174.731 148.591 C 174.101 149.975,174.082 149.977,162.114 150.096 C 148.733 150.229,150.229 148.659,150.092 162.714 C 149.956 176.752,151.523 175.200,137.487 175.200 C 123.646 175.200,125.200 173.632,125.200 187.600 C 125.200 201.654,123.521 200.081,138.245 199.817 C 144.600 199.704,160.861 199.510,174.380 199.388 C 191.063 199.237,199.127 199.026,199.480 198.734 C 199.882 198.400,200.000 195.964,200.000 187.995 C 200.000 174.358,198.422 175.857,213.064 175.590 C 220.851 175.448,224.966 175.220,225.726 174.890 C 226.522 174.544,229.988 174.400,237.537 174.400 C 251.532 174.400,250.000 175.855,250.000 162.559 L 250.000 151.964 250.982 150.982 L 251.964 150.000 262.782 150.000 C 276.703 150.000,275.200 151.470,275.200 137.854 C 275.200 127.849,275.242 127.255,276.015 126.272 L 276.830 125.236 287.848 125.118 C 301.528 124.971,300.000 126.495,300.000 113.000 C 300.000 105.268,300.130 102.378,300.500 101.880 C 301.316 100.783,322.964 100.672,323.694 101.761 M352.974 111.400 C 352.975 117.120,353.031 119.404,353.099 116.476 C 353.168 113.548,353.167 108.868,353.099 106.076 C 353.030 103.284,352.974 105.680,352.974 111.400 M97.114 112.200 C 97.051 117.590,97.135 122.000,97.300 122.000 C 97.465 122.000,97.600 117.590,97.600 112.200 C 97.600 106.810,97.516 102.400,97.414 102.400 C 97.311 102.400,97.176 106.810,97.114 112.200 M43.500 122.300 C 53.235 122.360,69.165 122.360,78.900 122.300 C 88.635 122.240,80.670 122.191,61.200 122.191 C 41.730 122.191,33.765 122.240,43.500 122.300 M358.476 122.299 C 361.268 122.367,365.948 122.368,368.876 122.299 C 371.804 122.231,369.520 122.175,363.800 122.174 C 358.080 122.174,355.684 122.230,358.476 122.299 M22.083 136.300 C 22.166 146.574,22.302 145.389,22.497 132.699 C 22.554 129.014,22.465 125.999,22.300 125.999 C 22.135 126.000,22.037 130.635,22.083 136.300 M11.600 147.200 L 1.400 147.421 11.700 147.510 C 18.360 147.568,22.000 147.459,22.000 147.200 C 22.000 146.980,21.955 146.840,21.900 146.890 C 21.845 146.939,17.210 147.079,11.600 147.200 M352.700 225.077 C 350.826 225.377,350.686 226.186,350.682 236.780 C 350.677 247.355,350.793 248.304,352.127 248.577 C 356.542 249.479,372.424 249.119,373.450 248.093 C 374.358 247.184,374.089 226.146,373.160 225.467 C 372.529 225.006,355.207 224.676,352.700 225.077 M22.083 288.900 C 22.037 294.565,22.135 299.200,22.300 299.201 C 22.465 299.201,22.554 296.186,22.497 292.501 C 22.302 279.811,22.166 278.626,22.083 288.900 M150.982 300.982 L 150.000 301.964 150.005 311.682 C 150.012 322.628,150.055 322.960,151.569 323.587 C 153.669 324.457,172.745 323.965,173.433 323.024 C 174.195 321.981,174.275 301.235,173.520 300.480 C 173.171 300.131,170.165 300.000,162.502 300.000 L 151.964 300.000 150.982 300.982 M25.999 302.900 C 26.000 303.065,30.635 303.163,36.300 303.117 C 46.574 303.034,45.389 302.898,32.699 302.703 C 29.014 302.646,25.999 302.735,25.999 302.900 M47.103 309.699 C 47.296 321.872,47.435 323.017,47.518 313.100 C 47.563 307.655,47.465 303.200,47.300 303.199 C 47.135 303.199,47.046 306.124,47.103 309.699 M72.083 338.900 C 72.037 344.565,72.135 349.200,72.300 349.201 C 72.465 349.201,72.554 346.186,72.497 342.501 C 72.302 329.811,72.166 328.626,72.083 338.900 M76.000 352.900 C 76.000 353.065,87.385 353.159,101.300 353.108 C 115.215 353.057,122.550 352.968,117.600 352.909 C 94.294 352.632,76.000 352.628,76.000 352.900 " stroke="none" fill="#bf5c38" fill-rule="evenodd"></path><path id="path2" d="M176.700 101.232 C 175.563 101.894,175.633 124.175,176.774 124.786 C 178.435 125.675,197.748 125.314,198.946 124.371 L 200.000 123.542 200.000 112.794 C 200.000 102.140,199.992 102.040,199.111 101.423 C 198.044 100.676,177.949 100.505,176.700 101.232 M310.200 101.104 C 302.122 101.195,300.939 101.290,300.500 101.880 C 300.130 102.378,300.000 105.268,300.000 113.000 C 300.000 126.495,301.528 124.971,287.848 125.118 L 276.830 125.236 276.015 126.272 C 275.242 127.255,275.200 127.849,275.200 137.854 C 275.200 151.470,276.703 150.000,262.782 150.000 L 251.964 150.000 250.982 150.982 L 250.000 151.964 250.000 162.559 C 250.000 175.855,251.532 174.400,237.537 174.400 C 229.988 174.400,226.522 174.544,225.726 174.890 C 224.966 175.220,220.851 175.448,213.064 175.590 C 198.422 175.857,200.000 174.358,200.000 187.995 C 200.000 195.964,199.882 198.400,199.480 198.734 C 199.127 199.026,191.063 199.237,174.380 199.388 C 160.861 199.510,144.600 199.704,138.245 199.817 C 123.521 200.081,125.200 201.654,125.200 187.600 C 125.200 173.632,123.646 175.200,137.487 175.200 C 151.523 175.200,149.956 176.752,150.092 162.714 C 150.229 148.659,148.733 150.229,162.114 150.096 C 174.082 149.977,174.101 149.975,174.731 148.591 C 175.582 146.724,175.373 126.443,174.500 126.099 C 173.068 125.534,126.580 125.755,125.886 126.330 C 125.334 126.787,125.230 128.361,125.123 137.810 C 125.030 146.118,124.875 148.887,124.481 149.281 C 123.953 149.809,123.277 149.836,88.713 150.695 C 78.607 150.946,76.323 151.106,75.841 151.600 C 75.364 152.089,75.231 154.149,75.128 162.732 C 75.008 172.616,74.952 173.299,74.224 173.832 C 73.012 174.718,52.320 174.663,51.429 173.771 C 50.889 173.232,50.800 171.653,50.800 162.616 C 50.800 152.850,50.745 152.020,50.036 151.144 L 49.272 150.200 38.194 150.082 C 28.444 149.978,26.995 150.042,26.108 150.623 L 25.101 151.283 25.414 165.742 C 25.585 173.694,25.766 200.848,25.816 226.085 C 25.914 276.068,25.827 273.785,27.645 274.149 C 30.128 274.646,47.801 274.435,48.505 273.900 C 49.098 273.449,49.185 271.002,49.392 249.000 C 49.717 214.463,50.065 202.284,50.749 201.460 C 51.559 200.486,72.800 200.457,73.771 201.429 C 74.312 201.969,74.400 203.568,74.400 212.806 L 74.400 223.555 75.355 224.666 L 76.310 225.776 87.403 225.869 C 93.503 225.920,98.609 226.075,98.748 226.213 C 99.074 226.539,99.497 243.036,99.998 275.000 C 100.637 315.743,100.893 323.563,101.600 324.009 C 102.829 324.785,122.992 324.493,123.720 323.689 C 124.268 323.083,124.395 321.312,124.574 311.789 C 124.689 305.635,124.959 294.750,125.173 287.600 C 125.386 280.450,125.678 269.470,125.820 263.200 C 125.974 256.418,126.245 251.597,126.488 251.300 C 126.798 250.922,129.539 250.800,137.680 250.800 L 148.462 250.800 149.631 249.631 L 150.800 248.462 150.800 237.907 C 150.800 230.082,150.929 227.182,151.300 226.693 C 151.932 225.860,158.780 225.697,211.000 225.276 C 231.680 225.109,248.632 224.933,248.671 224.886 C 248.711 224.839,249.026 224.517,249.371 224.171 C 249.912 223.631,250.000 222.032,250.000 212.794 C 250.000 202.140,250.008 202.040,250.889 201.423 C 251.669 200.876,254.641 200.800,275.120 200.800 L 298.462 200.800 299.631 199.631 L 300.800 198.462 300.800 187.907 C 300.800 180.081,300.929 177.183,301.300 176.696 C 301.735 176.126,303.238 176.011,312.800 175.821 C 318.850 175.700,329.830 175.418,337.200 175.193 C 344.570 174.968,355.640 174.653,361.800 174.492 C 367.960 174.331,373.225 174.054,373.500 173.876 C 374.328 173.340,374.210 152.272,373.375 151.579 C 372.898 151.184,370.199 151.053,362.075 151.030 C 352.165 151.002,351.300 150.943,350.000 150.200 C 348.718 149.468,347.653 149.383,337.400 149.200 C 331.240 149.090,325.975 148.854,325.700 148.676 C 325.321 148.431,325.199 145.816,325.198 137.876 C 325.197 132.114,325.031 126.770,324.829 126.000 C 324.303 123.985,324.024 118.510,324.005 109.800 C 323.995 105.620,323.856 102.003,323.694 101.761 C 323.266 101.122,320.509 100.987,310.200 101.104 M332.600 150.726 C 337.440 150.939,343.052 151.133,345.071 151.157 C 350.335 151.219,350.000 150.443,350.000 162.580 C 350.000 173.432,350.036 173.242,347.885 173.756 C 345.567 174.310,300.705 174.093,300.346 173.526 C 299.525 172.231,299.947 151.653,300.812 150.788 C 301.718 149.882,312.933 149.860,332.600 150.726 M48.809 152.000 C 49.519 153.124,49.301 173.842,48.571 174.571 C 47.466 175.676,27.388 175.499,26.789 174.379 C 26.134 173.155,26.173 152.555,26.832 151.761 C 27.570 150.873,48.239 151.097,48.809 152.000 M298.693 175.677 C 299.313 176.191,299.421 197.431,298.809 198.400 C 298.482 198.917,295.074 199.041,274.115 199.295 C 251.883 199.564,225.544 200.116,225.300 200.317 C 225.245 200.363,225.200 205.436,225.200 211.591 L 225.200 222.782 224.278 223.386 C 222.997 224.225,150.869 224.351,150.339 223.515 C 149.668 222.457,149.934 202.523,150.629 201.829 C 150.974 201.483,151.289 201.165,151.329 201.122 C 151.368 201.080,162.650 200.897,176.400 200.717 C 219.571 200.151,224.536 200.025,224.878 199.488 C 225.048 199.220,225.191 194.024,225.194 187.943 C 225.199 177.811,225.259 176.857,225.900 176.547 C 226.285 176.361,231.910 176.086,238.400 175.937 C 244.890 175.788,251.190 175.516,252.400 175.333 C 255.653 174.841,298.066 175.157,298.693 175.677 M74.571 176.629 C 75.390 177.447,75.528 197.912,74.720 198.720 C 73.884 199.556,51.671 199.388,50.731 198.538 C 49.632 197.543,49.603 177.071,50.700 176.432 C 51.967 175.694,73.817 175.874,74.571 176.629 M99.166 200.700 C 100.007 201.389,100.019 201.580,99.910 212.600 L 99.800 223.800 88.449 223.906 C 80.408 223.982,76.937 223.880,76.549 223.557 C 75.947 223.058,75.720 201.838,76.306 200.960 C 76.855 200.137,77.796 200.063,88.056 200.032 C 97.260 200.003,98.399 200.072,99.166 200.700 M141.147 225.011 C 146.850 225.084,148.572 225.228,148.841 225.653 C 149.527 226.736,149.279 247.864,148.571 248.571 C 148.032 249.111,146.465 249.200,137.552 249.200 C 126.668 249.200,125.270 249.399,124.640 251.041 C 124.498 251.409,124.282 262.171,124.159 274.956 C 123.973 294.242,123.837 298.353,123.358 299.100 C 122.733 300.076,103.465 300.534,102.000 299.609 C 101.483 299.282,101.359 295.873,101.104 274.915 C 100.941 261.542,100.709 244.944,100.587 238.032 C 100.466 231.119,100.469 225.197,100.595 224.870 C 100.794 224.351,102.901 224.317,117.311 224.597 C 126.380 224.773,137.106 224.959,141.147 225.011 " stroke="none" fill="#e47c58" fill-rule="evenodd"></path><path id="path3" d="M250.609 48.028 C 250.805 48.647,250.670 48.909,250.073 49.065 C 249.633 49.180,249.180 49.633,249.065 50.073 C 248.909 50.670,248.647 50.805,248.028 50.609 C 247.573 50.464,247.200 50.508,247.200 50.706 C 247.200 51.179,248.471 51.192,249.064 50.726 C 249.351 50.501,249.628 50.522,249.788 50.781 C 249.931 51.011,249.786 51.200,249.466 51.200 C 248.382 51.200,248.200 52.589,248.000 62.400 C 247.846 69.943,247.685 72.177,247.300 72.100 C 247.025 72.045,246.800 72.180,246.800 72.400 C 246.800 72.664,235.096 72.802,212.500 72.806 C 177.652 72.812,176.906 72.845,177.384 74.350 C 177.555 74.887,177.481 75.200,177.184 75.200 C 176.926 75.200,176.812 75.453,176.930 75.763 C 177.137 76.301,176.322 76.776,174.143 77.386 C 172.904 77.734,172.812 78.477,172.805 88.100 C 172.802 93.630,172.654 96.800,172.400 96.800 C 172.180 96.800,172.045 97.025,172.100 97.300 C 172.179 97.696,164.942 97.842,137.400 98.000 C 101.609 98.206,101.651 98.204,100.992 99.708 C 100.776 100.198,100.198 100.776,99.708 100.992 C 98.282 101.617,98.210 102.094,98.000 112.400 C 97.846 119.943,97.685 122.177,97.300 122.100 C 97.025 122.045,96.800 122.180,96.800 122.400 C 96.800 122.664,85.008 122.800,62.224 122.800 C 39.230 122.800,27.563 122.936,27.396 123.207 C 27.258 123.430,27.058 124.093,26.951 124.679 C 26.702 126.056,26.434 126.468,25.972 126.183 C 25.768 126.056,25.600 126.173,25.600 126.443 C 25.600 126.713,25.482 126.815,25.337 126.670 C 25.192 126.525,24.832 126.607,24.537 126.852 C 24.124 127.195,24.000 127.143,24.000 126.625 C 24.000 126.255,23.835 126.055,23.634 126.179 C 23.433 126.303,23.177 126.179,23.066 125.902 C 22.938 125.586,22.851 125.647,22.832 126.067 C 22.814 126.433,22.991 126.797,23.225 126.875 C 23.525 126.975,23.525 127.345,23.225 128.134 C 22.972 128.800,22.800 132.801,22.800 138.026 C 22.800 143.609,22.655 146.800,22.400 146.800 C 22.180 146.800,22.045 147.025,22.100 147.300 C 22.228 147.940,2.393 148.239,1.227 147.614 C -0.014 146.950,0.000 146.205,0.000 212.600 C -0.000 277.962,0.001 278.005,1.143 277.994 C 1.576 277.990,1.643 277.888,1.338 277.694 C 1.084 277.532,5.720 277.400,11.642 277.400 C 19.778 277.400,22.364 277.516,22.227 277.874 C 22.127 278.135,22.204 278.405,22.397 278.474 C 22.591 278.543,22.789 283.158,22.837 288.728 L 22.924 298.856 23.879 298.616 C 25.057 298.320,26.100 299.245,25.745 300.270 C 25.526 300.904,25.575 300.894,26.115 300.200 C 26.706 299.441,26.728 299.473,26.545 300.838 L 26.351 302.276 36.469 302.366 C 42.794 302.422,46.681 302.608,46.838 302.862 C 46.976 303.085,47.249 303.252,47.445 303.233 C 47.640 303.214,47.890 307.563,48.000 312.899 C 48.203 322.719,48.594 325.198,50.012 325.671 C 50.381 325.794,50.648 326.507,50.769 327.700 C 50.835 328.338,52.000 327.961,52.006 327.300 C 52.011 326.785,52.098 326.736,52.338 327.114 C 52.593 327.515,54.833 327.603,62.537 327.514 C 70.308 327.424,72.369 327.506,72.217 327.900 C 72.112 328.175,72.199 328.400,72.413 328.400 C 72.651 328.400,72.802 331.901,72.806 337.500 C 72.809 342.505,72.979 346.864,73.183 347.187 C 73.418 347.558,73.398 347.961,73.128 348.287 C 72.811 348.669,72.868 348.800,73.351 348.800 C 73.708 348.800,74.000 348.629,74.000 348.421 C 74.000 348.191,74.471 348.206,75.200 348.460 C 76.287 348.839,76.585 349.230,76.447 350.100 C 76.421 350.265,76.616 350.400,76.880 350.400 C 77.253 350.400,77.253 350.507,76.880 350.880 C 76.202 351.558,76.233 352.637,76.913 352.072 C 77.239 351.802,77.642 351.782,78.013 352.017 C 78.641 352.413,121.587 352.554,123.040 352.164 C 123.628 352.006,123.890 351.602,123.912 350.816 C 123.929 350.199,124.128 348.998,124.354 348.147 C 124.579 347.296,124.876 342.460,125.013 337.400 C 125.275 327.754,125.499 326.380,126.926 325.676 C 128.256 325.021,147.558 324.879,150.852 325.500 C 153.616 326.021,172.706 325.918,174.123 325.374 C 175.594 324.810,175.760 323.643,175.928 312.711 C 176.066 303.721,176.190 301.940,176.707 301.511 C 177.182 301.116,182.833 300.935,201.561 300.712 C 235.950 300.304,248.639 299.923,249.281 299.281 C 249.671 298.891,249.850 296.022,250.000 287.745 C 250.253 273.819,248.630 275.390,263.068 275.098 C 272.969 274.898,274.426 274.784,276.241 274.066 C 277.860 273.425,278.605 273.333,279.841 273.619 C 280.699 273.818,285.030 273.985,289.468 273.990 C 295.525 273.998,298.157 274.159,300.030 274.639 C 303.161 275.441,321.996 275.323,323.473 274.492 C 324.847 273.719,324.942 272.870,324.972 261.114 C 325.007 247.152,323.585 248.708,336.426 248.582 L 346.505 248.484 348.952 249.641 L 351.400 250.799 361.850 250.800 C 373.404 250.800,374.608 250.679,375.314 249.447 C 375.834 248.540,375.836 247.471,375.405 201.297 L 375.176 176.794 376.759 175.097 L 378.342 173.400 389.171 173.400 L 399.999 173.400 400.000 163.152 C 400.000 153.658,399.949 152.904,399.300 152.907 C 398.915 152.908,394.060 152.885,388.510 152.855 L 378.421 152.800 377.815 151.628 C 377.424 150.874,377.301 149.995,377.468 149.161 C 377.690 148.049,377.630 147.903,377.043 148.128 C 376.600 148.298,376.454 148.236,376.629 147.953 C 376.815 147.653,376.526 147.597,375.716 147.775 C 373.396 148.284,372.716 147.157,372.577 142.575 C 372.230 131.074,371.883 128.656,370.523 128.256 C 369.065 127.826,360.125 127.860,357.620 128.304 C 355.059 128.758,351.600 127.771,352.223 126.763 C 352.327 126.594,352.212 126.331,351.966 126.179 C 351.716 126.024,351.616 125.418,351.740 124.801 C 351.872 124.138,351.728 123.400,351.379 122.949 C 350.895 122.325,350.838 122.314,351.035 122.882 C 351.243 123.482,351.111 123.518,349.939 123.182 C 349.205 122.972,348.550 122.800,348.482 122.800 C 347.609 122.800,347.200 119.309,347.200 111.862 C 347.200 101.764,348.276 102.752,337.427 102.890 L 328.761 103.000 327.968 102.000 C 327.365 101.239,327.229 100.630,327.400 99.452 C 327.586 98.173,327.518 97.946,327.012 98.140 C 326.676 98.269,326.400 98.197,326.400 97.980 C 326.400 97.763,325.989 97.688,325.486 97.814 C 323.111 98.410,322.729 97.198,322.782 89.222 C 322.861 77.183,323.362 77.738,312.329 77.634 C 302.423 77.541,301.909 77.398,302.063 74.781 C 302.114 73.911,302.282 73.200,302.435 73.200 C 302.589 73.200,302.814 72.939,302.937 72.620 C 303.070 72.273,302.967 72.115,302.680 72.225 C 302.313 72.365,302.218 69.899,302.277 61.761 C 302.319 55.905,302.246 51.220,302.116 51.351 C 301.986 51.481,301.642 51.275,301.352 50.894 C 301.063 50.512,300.820 50.408,300.813 50.663 C 300.798 51.202,299.314 50.908,298.932 50.290 C 298.791 50.062,298.865 49.993,299.096 50.135 C 299.329 50.279,299.626 49.952,299.765 49.397 C 299.903 48.849,300.192 48.400,300.408 48.400 C 300.623 48.400,300.800 48.209,300.800 47.976 C 300.800 47.743,300.600 47.676,300.355 47.828 C 300.111 47.979,299.781 47.893,299.623 47.638 C 299.342 47.183,298.000 47.435,298.000 47.943 C 298.000 48.084,287.965 48.152,275.700 48.093 C 252.976 47.984,251.200 48.084,251.200 49.472 C 251.200 49.788,251.011 49.931,250.781 49.788 C 250.522 49.628,250.501 49.351,250.726 49.064 C 251.192 48.471,251.179 47.200,250.706 47.200 C 250.508 47.200,250.464 47.573,250.609 48.028 M301.382 48.371 C 301.508 48.575,301.239 48.861,300.784 49.005 C 299.563 49.392,300.034 50.093,301.619 50.248 C 302.716 50.356,302.856 50.299,302.300 49.972 C 301.915 49.746,301.600 49.379,301.600 49.157 C 301.600 48.934,301.825 48.888,302.100 49.053 C 302.440 49.257,302.424 49.137,302.051 48.677 C 301.470 47.961,300.994 47.743,301.382 48.371 M298.456 75.964 C 299.396 76.725,299.401 76.770,299.600 87.545 C 299.750 95.659,299.930 98.492,300.319 98.881 C 300.710 99.272,303.764 99.456,312.719 99.626 C 319.254 99.751,324.626 99.886,324.657 99.926 C 325.228 100.662,325.416 103.233,325.591 112.736 C 325.856 127.101,324.499 125.600,337.218 125.600 C 350.547 125.600,349.594 124.594,349.598 138.671 L 349.600 147.942 350.654 148.771 C 351.660 149.562,352.194 149.600,362.354 149.605 C 377.089 149.613,375.710 148.160,375.526 163.492 L 375.400 173.983 374.348 175.035 L 373.295 176.086 350.984 176.274 C 327.102 176.476,326.066 176.562,325.557 178.400 C 325.404 178.950,325.262 183.565,325.240 188.656 C 325.187 201.020,326.556 199.746,313.045 200.000 L 302.417 200.200 301.309 201.308 L 300.200 202.416 300.000 212.995 C 299.746 226.443,301.242 224.946,287.797 225.200 C 274.069 225.460,275.426 224.230,275.320 236.511 C 275.194 251.152,276.124 249.990,264.500 250.029 C 254.749 250.062,251.715 250.355,250.999 251.334 C 250.663 251.793,250.452 255.129,250.312 262.185 C 250.035 276.124,250.918 275.199,237.874 275.202 C 224.339 275.206,225.206 274.324,225.202 288.100 C 225.200 298.674,225.247 298.537,221.432 299.013 C 215.650 299.736,175.957 299.029,175.338 298.193 C 174.850 297.533,174.772 295.637,174.876 286.864 L 175.000 276.328 175.954 275.556 C 176.844 274.836,177.606 274.786,187.366 274.813 C 193.118 274.829,198.121 274.728,198.484 274.589 C 199.753 274.102,200.000 272.053,200.000 261.994 C 200.000 252.653,200.045 252.051,200.815 251.072 L 201.630 250.036 212.601 249.918 C 222.506 249.811,223.642 249.731,224.286 249.086 C 225.377 247.994,225.376 228.405,224.286 227.314 C 223.616 226.645,222.103 226.600,200.150 226.600 L 176.729 226.600 175.961 227.549 C 175.246 228.432,175.198 229.165,175.266 238.149 C 175.344 248.398,175.188 249.415,173.488 249.783 C 173.000 249.889,168.020 250.073,162.423 250.191 C 149.765 250.458,150.400 250.140,150.400 256.206 C 150.400 266.505,149.901 273.699,149.135 274.465 C 148.463 275.137,147.575 275.200,138.700 275.205 C 128.387 275.211,127.442 275.302,126.928 276.339 C 126.747 276.703,126.510 287.481,126.400 300.291 L 126.200 323.583 125.092 324.691 L 123.983 325.800 112.634 325.917 L 101.285 326.035 100.142 325.052 L 99.000 324.070 98.800 287.602 C 98.604 251.839,98.585 251.124,97.808 250.556 C 97.156 250.080,95.229 249.997,86.921 250.089 C 73.693 250.235,75.061 251.622,74.800 237.799 C 74.540 224.046,75.875 225.451,62.893 225.271 C 54.566 225.156,52.873 225.229,52.200 225.735 C 51.399 226.336,50.674 269.090,51.396 273.077 C 51.726 274.897,52.242 274.981,62.600 274.900 C 76.138 274.795,75.201 273.886,75.198 287.119 C 75.194 301.355,76.322 300.194,62.651 300.049 C 48.916 299.903,50.006 301.068,50.002 286.524 C 50.001 279.224,49.877 276.768,49.500 276.524 C 49.225 276.346,43.831 276.110,37.514 276.000 C 24.334 275.771,24.874 275.930,24.356 272.122 C 23.961 269.220,23.811 153.547,24.200 151.514 C 24.682 148.991,24.574 149.013,37.090 148.872 C 46.711 148.764,48.777 148.844,50.529 149.393 C 52.304 149.949,54.145 150.012,63.400 149.830 C 91.504 149.278,98.756 149.005,99.281 148.481 C 99.667 148.095,99.857 145.332,100.022 137.681 C 100.143 132.027,100.381 127.101,100.550 126.737 C 101.128 125.488,102.995 125.243,113.200 125.073 C 119.197 124.973,123.976 124.717,124.797 124.452 C 125.771 124.137,133.312 124.000,149.648 124.000 C 167.924 124.000,173.194 123.890,173.516 123.500 C 173.772 123.192,173.982 118.859,174.065 112.200 C 174.246 97.681,172.610 99.033,189.600 99.367 C 221.291 99.990,223.598 100.108,224.436 101.144 C 225.660 102.657,225.604 122.579,224.371 124.146 L 223.542 125.200 212.993 125.200 L 202.445 125.200 201.322 126.165 L 200.200 127.131 200.163 137.791 C 200.115 151.631,201.606 150.140,187.553 150.400 L 176.728 150.600 175.945 151.567 C 174.807 152.975,174.956 172.729,176.114 173.886 C 177.316 175.088,222.939 174.435,224.174 173.199 C 224.672 172.700,224.780 170.992,224.807 163.199 C 224.857 148.995,223.813 150.080,237.600 149.903 C 250.906 149.733,249.696 150.984,249.896 137.200 C 250.010 129.279,250.170 126.806,250.609 126.133 C 251.403 124.917,254.789 124.622,264.329 124.940 C 275.544 125.314,274.771 126.230,274.787 112.544 C 274.804 98.759,276.265 100.239,262.459 100.058 C 248.724 99.877,250.200 101.298,250.200 88.258 C 250.200 77.422,250.351 76.156,251.712 75.608 C 253.736 74.794,297.420 75.126,298.456 75.964 M172.832 76.057 C 172.814 76.419,173.070 76.818,173.400 76.945 C 173.772 77.087,174.000 76.943,174.000 76.564 C 174.000 76.228,173.835 76.055,173.634 76.179 C 173.433 76.303,173.177 76.179,173.066 75.902 C 172.937 75.582,172.852 75.638,172.832 76.057 M100.609 98.028 C 100.805 98.647,100.670 98.909,100.073 99.065 C 99.633 99.180,99.180 99.633,99.065 100.073 C 98.909 100.670,98.647 100.805,98.028 100.609 C 97.573 100.464,97.200 100.500,97.200 100.688 C 97.200 101.165,98.733 101.233,99.020 100.768 C 99.149 100.558,99.453 100.509,99.696 100.659 C 99.976 100.832,100.046 100.697,99.888 100.286 C 99.706 99.811,99.811 99.706,100.286 99.888 C 100.697 100.046,100.832 99.976,100.659 99.696 C 100.509 99.453,100.558 99.149,100.768 99.020 C 101.233 98.733,101.165 97.200,100.688 97.200 C 100.500 97.200,100.464 97.573,100.609 98.028 M373.160 225.467 C 374.089 226.146,374.358 247.184,373.450 248.093 C 372.424 249.119,356.542 249.479,352.127 248.577 C 350.793 248.304,350.677 247.355,350.682 236.780 C 350.686 226.186,350.826 225.377,352.700 225.077 C 355.207 224.676,372.529 225.006,373.160 225.467 M173.520 300.480 C 174.275 301.235,174.195 321.981,173.433 323.024 C 172.745 323.965,153.669 324.457,151.569 323.587 C 150.055 322.960,150.012 322.628,150.005 311.682 L 150.000 301.964 150.982 300.982 L 151.964 300.000 162.502 300.000 C 170.165 300.000,173.171 300.131,173.520 300.480 M47.461 323.687 C 47.161 324.836,47.317 324.945,47.907 324.000 C 48.169 323.581,48.228 323.141,48.037 323.023 C 47.847 322.905,47.588 323.204,47.461 323.687 M47.909 324.963 C 47.792 325.576,47.890 325.864,48.178 325.753 C 48.700 325.553,48.916 324.000,48.422 324.000 C 48.241 324.000,48.010 324.434,47.909 324.963 " stroke="none" fill="#9a482c" fill-rule="evenodd"></path><path id="path4" d="M300.812 150.788 C 299.947 151.653,299.525 172.231,300.346 173.526 C 300.705 174.093,345.567 174.310,347.885 173.756 C 350.036 173.242,350.000 173.432,350.000 162.580 C 350.000 150.443,350.335 151.219,345.071 151.157 C 343.052 151.133,337.440 150.939,332.600 150.726 C 312.933 149.860,301.718 149.882,300.812 150.788 M26.832 151.761 C 26.173 152.555,26.134 173.155,26.789 174.379 C 27.388 175.499,47.466 175.676,48.571 174.571 C 49.301 173.842,49.519 153.124,48.809 152.000 C 48.239 151.097,27.570 150.873,26.832 151.761 M252.400 175.333 C 251.190 175.516,244.890 175.788,238.400 175.937 C 231.910 176.086,226.285 176.361,225.900 176.547 C 225.259 176.857,225.199 177.811,225.194 187.943 C 225.191 194.024,225.048 199.220,224.878 199.488 C 224.536 200.025,219.571 200.151,176.400 200.717 C 162.650 200.897,151.368 201.080,151.329 201.122 C 151.289 201.165,150.974 201.483,150.629 201.829 C 149.934 202.523,149.668 222.457,150.339 223.515 C 150.869 224.351,222.997 224.225,224.278 223.386 L 225.200 222.782 225.200 211.591 C 225.200 205.436,225.245 200.363,225.300 200.317 C 225.544 200.116,251.883 199.564,274.115 199.295 C 295.074 199.041,298.482 198.917,298.809 198.400 C 299.421 197.431,299.313 176.191,298.693 175.677 C 298.066 175.157,255.653 174.841,252.400 175.333 M50.700 176.432 C 49.603 177.071,49.632 197.543,50.731 198.538 C 51.671 199.388,73.884 199.556,74.720 198.720 C 75.528 197.912,75.390 177.447,74.571 176.629 C 73.817 175.874,51.967 175.694,50.700 176.432 M77.200 200.292 C 76.080 200.718,76.012 201.394,76.006 212.251 C 76.001 220.962,76.108 223.192,76.549 223.557 C 76.937 223.880,80.408 223.982,88.449 223.906 L 99.800 223.800 99.910 212.600 C 100.019 201.580,100.007 201.389,99.166 200.700 C 98.312 200.001,78.912 199.640,77.200 200.292 M100.595 224.870 C 100.469 225.197,100.466 231.119,100.587 238.032 C 100.709 244.944,100.941 261.542,101.104 274.915 C 101.359 295.873,101.483 299.282,102.000 299.609 C 103.465 300.534,122.733 300.076,123.358 299.100 C 123.837 298.353,123.973 294.242,124.159 274.956 C 124.282 262.171,124.498 251.409,124.640 251.041 C 125.270 249.399,126.668 249.200,137.552 249.200 C 146.465 249.200,148.032 249.111,148.571 248.571 C 149.279 247.864,149.527 226.736,148.841 225.653 C 148.572 225.228,146.850 225.084,141.147 225.011 C 137.106 224.959,126.380 224.773,117.311 224.597 C 102.901 224.317,100.794 224.351,100.595 224.870 " stroke="none" fill="#fb9c7c" fill-rule="evenodd"></path></g></svg>